<svg width="80" height="80" viewBox="0 0 80 80" fill="none" 
    xmlns="http://www.w3.org/2000/svg">
    <path d="M40 5.00122C20.67 5.00122 5 20.6712 5 40.0012C5 59.3312 20.67 75.0012 40 75.0012C59.33 75.0012 75 59.3312 75 40.0012C75 20.67 59.33 5.00122 40 5.00122ZM40 72.5C22.08 72.5 7.5 57.92 7.5 40C7.5 22.08 22.08 7.49997 40 7.49997C57.92 7.49997 72.5 22.08 72.5 40C72.5 57.92 57.92 72.5 40 72.5Z" fill="#E22134"/>
    <path d="M37.045 54.98C37.045 54.1675 37.3312 53.4687 37.9025 52.8825C38.4725 52.2962 39.165 52.0025 39.9775 52.0025C40.7887 52.0025 41.4888 52.295 42.075 52.8825C42.6613 53.47 42.955 54.1675 42.955 54.98C42.955 55.7912 42.6613 56.4837 42.075 57.055C41.4888 57.6275 40.79 57.9125 39.9775 57.9125C39.165 57.9125 38.4725 57.6262 37.9025 57.055C37.3312 56.485 37.045 55.7925 37.045 54.98ZM41.51 48.53H38.4875L37.315 25.7037H42.6375L41.51 48.53Z" fill="#E22134"/>
</svg>
